<?xml version="1.0"?>
<svg width="500" height="400" xmlns="http://www.w3.org/2000/svg" xmlns:svg="http://www.w3.org/2000/svg" preserveAspectRatio="xMidYMid meet" version="1.0">
 <g class="layer">
  <title>Layer 1</title>
  <g fill="#000000" id="svg_1" transform="matrix(0.15 0 0 -0.15 0.625 -0.625)">
   <path d="m1773.5,-183.35c-16,-16 -20,-28 -15,-44c8,-27 6,-24 24,-28c8,-2 16,-1 18,4c1,4 -1,7 -5,6c-13,-1 -21,36 -11,49c12,14 32,17 24,3c-4,-5 7,-4 23,2c67,25 282,-30 267,-68c-2,-7 3,-12 11,-11c11,1 20,-14 29,-46c7,-29 8,-48 2,-48c-5,0 -7,-8 -3,-19c6,-21 -11,-66 -37,-95c-10,-11 -18,-23 -18,-27c0,-14 -64,-33 -116,-33c-58,-1 -75,-15 -21,-18c17,0 39,-1 47,0c50,5 60,7 60,14c0,3 8,9 18,13c33,10 82,90 89,143c16,137 -69,208 -261,219c-97,6 -104,5 -125,-16z" fill="red" id="svg_2" stroke="black" stroke-width="5"/>
   <path d="m1321.5,-205.35c-19,-19 -20,-27 -14,-137c4,-64 12,-121 17,-127c7,-7 9,11 6,52c-3,39 -1,60 6,56c6,-4 6,1 1,13c-15,38 -18,112 -4,127c29,30 75,-18 64,-66c-6,-23 -16,-160 -16,-212c0,-23 -2,-26 -9,-15c-6,10 -7,2 -3,-24c5,-31 3,-37 -7,-31c-10,6 -12,4 -6,-10c9,-23 -23,-125 -41,-132c-7,-3 -21,1 -31,8c-15,13 -16,12 -3,-4c18,-22 7,-34 -15,-16c-16,13 -16,12 -6,-8c10,-19 9,-20 -8,-16c-26,7 -29,60 -3,57c7,-1 10,2 7,7c-3,5 -1,9 4,9c10,0 38,60 34,73c-1,4 2,7 8,7c18,0 11,18 -10,25c-11,3 -20,13 -20,21c0,8 -5,12 -11,9c-6,-4 -9,-1 -7,7c2,7 -1,14 -5,15c-15,3 -48,53 -42,63c4,6 -1,7 -12,3c-10,-3 -15,-3 -11,2c4,4 -7,19 -23,32c-19,17 -28,31 -24,42c3,8 3,12 -1,8c-11,-11 -44,50 -37,68c3,9 12,14 20,11c8,-4 11,-1 7,5c-4,7 2,9 15,7c12,-1 22,-7 23,-13c0,-5 9,-16 20,-23c10,-7 16,-17 13,-22c-3,-4 2,-13 10,-20c8,-7 15,-17 15,-23c0,-13 71,-120 76,-114c13,13 -118,231 -141,235c-30,6 -61,-7 -72,-31c-13,-27 10,-78 62,-143c94,-116 118,-144 126,-144c27,0 -12,-86 -43,-96c-23,-7 -31,-35 -19,-68c9,-21 17,-26 45,-26c53,0 100,61 120,154c30,134 34,167 35,280c2,108 1,115 -21,130c-30,21 -44,20 -69,-5z" fill="red" id="svg_3" stroke="black" stroke-width="5"/>
   <path d="m1907.5,-257.35c-6,-6 -10,-34 -10,-62c0,-27 -3,-55 -7,-60c-3,-6 -4,-29 -1,-52c4,-30 11,-44 25,-49c30,-9 83,4 104,27c21,23 46,89 33,89c-5,0 -6,6 -3,13c5,15 -21,83 -36,92c-21,13 -95,15 -105,2zm56,-8c54,-19 69,-37 69,-85c0,-78 -32,-114 -101,-114c-30,0 -31,1 -25,38c4,20 9,66 11,102c2,36 5,66 5,68c0,4 6,2 41,-9z" fill="red" id="svg_4" stroke="black" stroke-width="5"/>
   <path d="m829.5,-272.35c-21,-23 -21,-41 -1,-91c16,-40 16,-40 -11,-64c-21,-17 -26,-29 -21,-45c9,-26 39,-37 65,-22c18,9 22,6 34,-22c47,-110 70,-147 98,-158c39,-17 93,-7 134,24c41,31 49,59 25,88c-18,22 -18,22 -53,4c-40,-22 -63,-17 -77,19c-5,13 -18,42 -28,64l-19,38l39,17c31,15 38,22 38,46c0,43 -32,57 -73,32l-32,-19l-25,51c-29,58 -63,72 -93,38zm80,-54c26,-53 31,-55 74,-32c24,12 34,13 45,3c18,-15 18,-33 0,-26c-10,4 -13,1 -9,-9c3,-7 0,-14 -7,-14c-22,0 -55,-35 -58,-60c-1,-18 0,-21 7,-11c7,11 16,-1 37,-48c28,-61 56,-83 85,-65c7,4 10,3 6,-3c-3,-5 0,-10 8,-10c8,0 12,4 9,8c-2,4 4,13 15,18c14,8 20,7 25,-4c8,-22 -4,-47 -21,-41c-8,3 -12,2 -9,-3c9,-14 -17,-30 -62,-37c-37,-6 -42,-4 -42,12c0,16 -2,17 -10,4c-9,-13 -11,-13 -19,0c-5,8 -7,18 -4,24c3,5 2,6 -4,3c-17,-10 -56,70 -49,101c4,18 3,22 -2,13c-8,-10 -13,-8 -25,9c-11,16 -22,21 -39,17c-34,-9 -53,6 -39,29c6,11 11,15 11,9c0,-5 9,3 20,20c12,18 15,32 9,36c-13,8 -26,67 -21,92c7,34 44,15 69,-35z" fill="red" id="svg_5" stroke="black" stroke-width="5"/>
   <path d="m1807.5,-276.35c-7,-21 -45,-330 -45,-370c0,-42 19,-58 68,-58c39,0 48,13 59,91c7,54 7,66 -4,62c-7,-3 -13,-8 -14,-12c-1,-3 -3,-25 -5,-49c-5,-61 -20,-85 -47,-76c-28,9 -48,35 -41,54c4,8 10,58 15,110c5,52 12,106 15,120c9,36 16,140 9,140c-3,0 -8,-6 -10,-12z" fill="red" id="svg_6" stroke="black" stroke-width="5"/>
   <path d="m564.5,-326.35c-18,-13 -39,-41 -48,-64c-20,-53 -7,-108 46,-185c38,-57 38,-57 18,-77c-16,-16 -18,-24 -9,-40c15,-28 41,-35 61,-17c16,14 23,8 88,-77c94,-124 109,-139 130,-131c23,8 62,44 62,57c0,12 -143,194 -166,212c-12,9 -8,15 21,35c41,28 51,50 35,79c-15,28 -51,25 -85,-6l-28,-26l-18,23c-36,47 -69,117 -63,133c10,25 33,19 52,-14c23,-42 60,-50 84,-20c26,32 17,66 -27,108c-44,40 -103,44 -153,10zm133,-26c0,-6 4,-14 9,-19c5,-5 6,-3 2,5c-4,6 -2,12 4,12c14,0 31,-46 24,-64c-12,-31 -51,-25 -45,7c1,5 -3,6 -8,2c-6,-3 -16,3 -23,15c-17,27 -44,25 -63,-4c-15,-22 -15,-27 -1,-55c9,-16 16,-37 16,-46c0,-9 4,-14 8,-11c5,3 19,-12 31,-34c23,-41 37,-43 72,-13c26,22 56,24 62,3c3,-12 -3,-22 -18,-30c-49,-26 -49,-71 -1,-113c12,-11 20,-26 18,-34c-2,-8 1,-12 7,-9c5,4 15,-4 22,-16c7,-13 25,-36 41,-52c32,-31 34,-62 5,-80c-21,-13 -53,4 -51,27c1,10 -4,13 -14,10c-9,-4 -13,-2 -9,4c3,5 -2,16 -11,25c-9,8 -24,25 -32,38c-8,13 -27,38 -43,56c-19,22 -24,34 -15,37c7,2 0,4 -17,3c-16,-1 -35,-5 -41,-8c-6,-4 -20,-1 -30,7c-16,12 -17,16 -5,24c22,14 17,65 -8,92c-12,13 -19,29 -16,37c2,7 1,11 -3,8c-5,-3 -16,11 -26,30c-14,30 -14,39 -4,52c10,12 10,14 1,8c-9,-5 -13,-1 -13,13c0,11 5,23 11,26c5,4 14,17 19,30c14,37 57,53 105,39c22,-6 40,-16 40,-22z" fill="red" id="svg_7" stroke="black" stroke-width="5"/>
   <path d="m2281.5,-433.35c-102,-33 -182,-198 -134,-278c34,-57 94,-77 145,-48c27,15 9,19 -25,6c-13,-6 -33,-2 -57,10c-61,31 -70,107 -26,205c6,13 15,21 21,17c6,-3 7,-1 3,5c-8,14 70,67 104,70c15,2 42,-8 63,-22c27,-19 37,-22 37,-11c0,33 -81,61 -131,46z" fill="red" id="svg_8" stroke="black" stroke-width="5"/>
   <path d="m2434.5,-486.35c-17,-17 -15,-33 2,-19c11,10 20,10 36,1c25,-13 22,-34 -11,-107c-10,-23 -19,-48 -19,-56c0,-7 -7,-22 -15,-33c-8,-10 -15,-29 -15,-42c0,-34 -18,-62 -39,-62c-25,0 -43,23 -35,46c5,16 4,16 -5,4c-18,-25 -12,-50 13,-60c45,-17 65,-2 82,59c8,31 30,93 49,138c41,96 42,107 13,127c-27,19 -40,20 -56,4z" fill="red" id="svg_9" stroke="black" stroke-width="5"/>
   <path d="m2280.5,-534.35c-32,-25 -65,-107 -49,-123c6,-6 11,-19 11,-28c0,-31 66,-34 96,-4c19,18 54,92 47,99c-4,3 -1,6 5,6c18,0 14,35 -6,53c-25,23 -74,21 -104,-3zm90,-2c7,-7 12,-18 12,-25c0,-24 -50,-121 -66,-127c-53,-21 -83,12 -63,72c22,71 84,113 117,80z" fill="red" id="svg_10" stroke="black" stroke-width="5"/>
   <path d="m318.5,-596.35c-33,-47 -13,-98 39,-98c37,0 65,28 65,67c0,51 -75,73 -104,31zm76,-26c-4,-11 -2,-13 9,-7c10,7 10,3 -3,-15c-9,-14 -23,-24 -32,-24c-9,1 -16,-2 -16,-8c0,-5 -5,-6 -10,-3c-6,4 -8,15 -5,26c5,15 3,17 -11,12c-14,-5 -15,-3 -5,15c6,12 19,25 28,31c22,12 53,-7 45,-27z" fill="red" id="svg_11" stroke="black" stroke-width="5"/>
   <path d="m2621.5,-607.35c-9,-12 -46,-66 -83,-119c-60,-90 -106,-153 -157,-218c-30,-38 -24,-66 19,-89c16,-8 28,-9 42,-1c21,11 100,126 100,144c-1,15 -50,-46 -50,-61c0,-14 -16,-18 -23,-5c-2,4 -2,1 -1,-5c5,-20 -7,-44 -19,-36c-5,3 -7,1 -4,-4c13,-21 -26,-24 -46,-5c-19,19 -18,20 7,61c14,22 26,43 26,46c0,3 11,18 25,33c14,15 36,43 47,62c12,19 24,37 28,40c3,3 18,24 34,47c16,24 32,40 37,37c5,-3 7,1 4,8c-6,19 40,68 65,68c11,0 20,-4 20,-9c0,-5 3,-17 7,-27c5,-13 3,-15 -8,-9c-12,7 -12,5 -1,-6c11,-12 14,-12 22,1c14,21 12,28 -10,50c-26,26 -61,25 -81,-3z" fill="red" id="svg_12" stroke="black" stroke-width="5"/>
   <path d="m2735.5,-674.35c-32,-13 -28,-19 11,-15c25,2 42,-4 69,-26c34,-28 35,-32 32,-81c-2,-29 -9,-54 -15,-56c-5,-2 -10,-10 -10,-18c0,-8 -4,-14 -9,-14c-5,0 -13,-9 -16,-20c-4,-12 -11,-17 -18,-14c-7,4 -9,4 -5,-1c20,-22 -63,-57 -123,-53c-36,2 -47,8 -65,35c-17,26 -23,29 -28,17c-4,-10 5,-26 25,-45c43,-40 116,-41 173,-1c49,33 101,109 110,157c10,50 -18,105 -64,127c-41,20 -38,19 -67,8z" fill="red" id="svg_13" stroke="black" stroke-width="5"/>
   <path d="m437.5,-709.35c-14,-13 -25,-31 -25,-38c0,-16 183,-213 213,-228c23,-13 62,10 70,41c5,19 -6,37 -60,98c-49,57 -150,152 -161,152c-7,0 -24,-11 -37,-25zm53,-14c12,-10 18,-21 15,-25c-4,-4 0,-4 9,-1c10,4 23,-4 37,-22c12,-15 47,-54 77,-86c46,-49 53,-60 44,-77c-16,-30 -41,-24 -84,20c-21,22 -43,40 -48,40c-6,0 -7,7 -4,16c3,8 2,13 -2,10c-15,-9 -105,91 -98,109c3,9 11,13 16,10c6,-4 10,-3 9,2c-5,27 2,28 29,4z" fill="red" id="svg_14" stroke="black" stroke-width="5"/>
   <path d="m2667.5,-732.35c-16,-10 -42,-36 -57,-58c-33,-48 -29,-87 11,-103c40,-15 78,-23 64,-14c-8,6 -4,12 16,21c29,13 71,77 71,109c0,22 -39,63 -61,63c-8,0 -27,-8 -44,-18zm73,-14c24,-24 14,-69 -27,-109c-41,-42 -70,-49 -95,-23c-29,28 -15,69 38,116c33,30 65,35 84,16z" fill="red" id="svg_15" stroke="black" stroke-width="5"/>
   <path d="m166.5,-804.35c-55,-8 -99,-42 -134,-103c-25,-43 -30,-63 -30,-117c0,-54 5,-74 30,-117c81,-141 288,-217 404,-149c72,42 117,112 118,185c2,66 -16,104 -63,137c-31,21 -37,30 -28,40c15,19 -14,64 -41,64c-21,0 -33,-11 -82,-75c-50,-66 -70,-112 -58,-134c17,-34 51,-37 76,-8c12,14 24,31 26,38c6,18 34,5 54,-25c20,-32 13,-68 -21,-102c-47,-47 -143,-27 -238,50c-47,37 -67,73 -67,119c0,36 24,74 50,79c8,2 34,-3 57,-11c39,-13 45,-13 63,4c23,20 26,63 8,88c-21,26 -79,44 -124,37zm40,-22c-4,-6 -3,-8 4,-4c17,10 60,-11 67,-34c9,-29 -21,-76 -40,-60c-7,6 -28,15 -46,20c-26,8 -37,6 -53,-8c-11,-9 -16,-11 -12,-5c4,8 2,11 -6,8c-8,-3 -15,-13 -16,-23c-1,-9 -5,-37 -8,-62c-5,-37 -1,-51 19,-82c15,-21 24,-47 23,-62c-2,-14 1,-23 6,-20c5,3 7,12 4,20c-7,18 8,18 23,1c6,-8 31,-24 56,-37c24,-12 42,-27 39,-31c-3,-5 2,-6 10,-3c9,3 24,3 34,-1c46,-20 126,9 144,53c19,43 17,65 -5,98c-17,26 -87,69 -72,44c6,-10 -49,-70 -65,-70c-19,0 -5,63 21,99c12,17 26,28 30,25c5,-3 6,1 3,9c-3,8 2,21 11,28c8,8 22,20 30,26c23,21 47,5 40,-28c-5,-23 -1,-31 25,-50c17,-13 38,-37 48,-54c19,-31 29,-105 14,-105c-4,0 -8,-9 -9,-19c-3,-31 -45,-88 -86,-115c-42,-27 -109,-42 -129,-30c-7,5 -22,7 -33,6c-43,-6 -170,70 -160,96c2,7 0,10 -5,7c-12,-8 -68,49 -81,82c-19,51 -14,135 11,186c15,29 29,46 37,43c7,-3 13,1 13,8c0,19 25,37 63,46c48,12 59,11 51,-2z" fill="red" id="svg_16" stroke="black" stroke-width="5"/>
   <path d="m43.5,-940.35c0,-11 3,-14 6,-6c3,7 2,16 -1,19c-3,4 -6,-2 -5,-13z" id="svg_17"/>
   <path d="m33.5,-1040.35c0,-11 3,-14 6,-6c3,7 2,16 -1,19c-3,4 -6,-2 -5,-13z" id="svg_18"/>
   <path d="m2863.5,-960.35c-57,-38 -90,-94 -91,-149c0,-75 100,-186 167,-185c27,1 53,25 53,49c0,16 -11,26 -43,40c-52,22 -70,43 -70,81c0,16 -5,31 -11,33c-7,3 -11,-5 -11,-18c2,-41 27,-84 55,-97c16,-7 26,-16 24,-20c-3,-4 1,-5 9,-2c19,7 32,-27 15,-38c-18,-11 -35,-10 -61,3c-33,17 -97,87 -97,107c-1,9 -3,33 -6,52c-4,30 1,43 30,81c40,53 87,79 142,79c49,0 127,-37 120,-57c-3,-8 -1,-11 4,-8c6,3 10,0 10,-9c0,-8 6,-16 12,-18c10,-4 10,-11 0,-34c-11,-27 -11,-27 3,-10c20,26 19,3 -1,-39c-26,-55 -90,-68 -141,-27c-20,16 -24,25 -16,33c8,8 16,8 31,0c21,-11 52,-5 52,10c0,5 6,9 14,9c25,0 27,17 6,53c-23,39 -50,50 -86,36c-39,-14 -53,-31 -43,-55c4,-12 5,-25 1,-30c-4,-4 -2,-4 5,0c15,8 27,-10 12,-20c-7,-4 -18,1 -26,11c-10,15 -13,15 -13,4c0,-23 60,-75 101,-88c89,-28 158,64 117,156c-28,63 -92,103 -163,103c-41,0 -60,-7 -104,-36zm167,-70c26,-18 28,-37 6,-58c-21,-22 -29,-20 -66,14c-32,29 -32,31 -14,45c25,19 46,19 74,-1z" fill="red" id="svg_19" stroke="black" stroke-width="5"/>
   <path d="m1967.5,-953.35c-73,-34 -104,-76 -124,-169c-13,-62 -36,-110 -64,-135c-18,-15 -22,-16 -37,-2c-26,24 -115,20 -141,-6c-26,-26 -16,-39 11,-14c23,20 105,24 123,6c18,-18 44,-12 66,15c11,14 23,25 28,25c4,0 7,11 6,25c-1,13 2,22 6,19c5,-2 11,14 14,38c8,59 11,68 30,104c20,37 63,73 88,73c9,0 19,5 21,12c6,16 123,20 152,4c31,-16 87,-72 79,-80c-4,-3 -1,-6 5,-6c6,0 16,-17 23,-37c6,-21 16,-43 21,-50c5,-6 8,-36 7,-66c-2,-44 -5,-54 -17,-49c-10,4 -13,1 -8,-7c5,-8 -3,-24 -20,-42c-15,-16 -24,-32 -21,-36c12,-12 67,50 78,88c27,87 -56,271 -133,298c-49,17 -148,13 -193,-8z" fill="red" id="svg_20" stroke="black" stroke-width="5"/>
   <path d="m1155.5,-1020.35c-40,-20 -57,-39 -86,-97c-37,-71 -24,-155 33,-215l22,-24l-36,-37l-37,-38l1,-139c1,-82 -2,-150 -9,-167c-15,-38 -14,-57 2,-57c11,0 15,-50 20,-247c3,-137 5,-283 3,-326c-3,-71 -1,-78 18,-83c12,-3 110,-4 219,-2c170,3 197,1 197,-12c0,-13 23,-15 160,-12c93,2 160,7 160,12c0,6 85,10 214,10c118,0 221,3 230,6c14,5 16,46 16,351c0,308 2,344 15,333c22,-18 27,-8 14,29c-8,22 -10,81 -7,170c4,94 2,139 -6,146c-6,6 -31,27 -54,48c-41,36 -43,37 -67,21c-14,-9 -32,-14 -40,-10c-8,3 -14,0 -12,-7c1,-7 -8,-12 -20,-11c-13,0 -23,-3 -23,-8c0,-15 42,-8 80,13l38,21l43,-41l44,-41l-81,0c-49,0 -96,6 -116,14c-30,13 -35,13 -35,1c0,-8 4,-12 7,-10c15,9 66,-26 105,-71c22,-26 38,-49 37,-52c-2,-3 0,-8 5,-11c23,-16 73,-106 76,-136c1,-18 6,-31 12,-28c6,3 4,0 -2,-7c-10,-11 -18,-11 -38,-2c-26,12 -36,-1 -11,-15c18,-10 22,-114 18,-445l-3,-228l-210,0c-115,0 -212,0 -216,0c-3,0 -7,153 -7,340l-1,339l115,3l115,3l22,-70c13,-38 23,-80 23,-92c0,-30 18,-29 29,0c5,13 28,54 51,92c23,37 38,70 35,73c-3,4 -10,0 -14,-7c-5,-8 -14,-10 -21,-6c-9,6 -11,4 -5,-5c7,-12 -43,-129 -55,-130c-3,0 -6,12 -7,26c0,15 -6,30 -13,34c-6,4 -10,11 -9,16c4,23 -2,55 -10,50c-7,-5 -31,56 -30,78c0,5 -3,12 -8,15c-4,3 -20,24 -35,46c-14,22 -40,55 -57,73c-17,18 -30,38 -28,45c1,7 -5,12 -15,12c-9,0 -28,13 -43,28c-15,15 -33,27 -40,27c-7,0 -15,6 -18,13c-3,8 -21,21 -40,30c-28,14 -41,15 -66,6c-24,-9 -43,-8 -77,1c-38,11 -47,10 -62,-2c-9,-9 -27,-19 -40,-23c-12,-3 -20,-11 -17,-16c5,-8 1,-10 -20,-9c-3,0 -26,-19 -51,-42c-41,-38 -74,-95 -114,-193c-14,-35 -32,-154 -26,-170c6,-18 2,-19 -25,-4c-11,5 -16,15 -13,21c4,6 3,8 -3,5c-5,-3 -27,10 -49,29c-35,32 -43,35 -79,29c-22,-3 -44,-10 -50,-16c-5,-5 -12,-9 -17,-9c-10,0 -5,53 6,61c4,4 7,67 7,140l-2,134l91,-3l91,-3l-58,-60c-59,-62 -113,-134 -113,-152c0,-11 45,46 54,67c3,7 8,7 14,-2c7,-11 10,-11 15,3c5,10 3,14 -4,9c-24,-14 -2,17 53,75c32,34 54,61 50,62c-4,1 4,5 18,9c16,5 -17,8 -90,9l-115,1l32,32c30,29 34,31 50,16c21,-18 43,-26 98,-33c28,-3 35,-2 25,5c-8,5 -23,10 -33,10c-20,0 -77,29 -88,43c-3,5 -8,7 -11,5c-6,-3 -45,43 -71,84c-18,29 -23,93 -8,102c5,3 7,14 5,24c-8,30 61,99 118,118c42,14 56,14 94,4c24,-7 41,-16 38,-21c-3,-5 2,-6 10,-3c20,8 115,-89 143,-145c16,-31 22,-37 27,-25c7,18 4,23 -71,111c-30,35 -72,70 -96,82c-52,25 -138,28 -184,5zm537,-389c22,4 38,11 35,15c-3,5 12,-1 33,-13l39,-21l6,-140c3,-78 6,-309 7,-513l1,-373l-148,0l-148,0l5,515l5,515l35,18c30,15 39,15 63,4c18,-9 41,-11 67,-7zm-194,-312c-4,-9 -30,-13 -91,-13c-47,0 -85,3 -85,8c0,15 32,98 56,147c13,28 46,69 72,92l47,42l3,-132c1,-72 0,-137 -2,-144zm407,202c68,-70 137,-172 137,-200c0,-3 -49,-5 -110,-5l-110,0l0,142l0,141l27,-24c16,-13 41,-37 56,-54zm381,45c-2,-14 -3,-59 -4,-100l-2,-75l-16,36c-23,47 -68,108 -104,139l-29,25l78,0c77,0 78,0 77,-25zm-784,-615l0,-345l-209,0l-209,0l0,325c-1,281 1,325 13,325c9,0 24,5 34,12c16,10 29,3 91,-50c39,-34 75,-62 81,-62c5,0 9,29 9,65l0,64l93,4c50,1 93,4 95,5c1,1 2,-153 2,-343z" fill="red" id="svg_21" stroke="black" stroke-width="5"/>
   <path d="m1753.5,-1770.35c0,-11 3,-14 6,-6c3,7 2,16 -1,19c-3,4 -6,-2 -5,-13z" id="svg_22"/>
   <path d="m1146.5,-1149.35c-4,-17 1,-33 15,-51c12,-15 21,-32 21,-39c0,-6 9,-20 19,-30c17,-15 39,-17 156,-16c108,2 140,-1 157,-14c27,-18 45,-20 26,-2c-35,33 -64,38 -194,35l-129,-3l-27,55c-37,77 -37,78 27,69c48,-6 165,-57 220,-95c11,-8 26,-14 35,-13c13,0 13,1 0,6c-8,3 -23,14 -34,25c-11,10 -26,18 -33,18c-8,0 -11,5 -7,11c4,7 1,10 -7,7c-8,-3 -39,8 -70,24c-37,20 -76,31 -113,34c-52,3 -56,2 -62,-21z" fill="red" id="svg_23" stroke="black" stroke-width="5"/>
   <path d="m2045.5,-1136.35c-24,-5 -43,-13 -43,-19c0,-5 -6,-9 -14,-9c-20,0 -106,-69 -106,-85c0,-8 -6,-15 -13,-15c-8,0 -22,-9 -32,-20c-10,-11 -13,-20 -8,-20c6,0 15,6 21,13c8,10 39,13 114,11c119,-3 147,5 172,48c15,24 21,27 28,17c7,-11 8,-9 4,4c-3,10 -1,27 4,38c7,13 7,19 1,19c-6,0 -19,-17 -30,-38c-31,-61 -56,-72 -161,-72c-50,0 -90,4 -90,9c0,14 56,55 116,85c38,19 68,26 109,26c31,0 54,4 51,9c-7,11 -69,11 -123,-1z" fill="red" id="svg_24" stroke="black" stroke-width="5"/>
   <path d="m1512.5,-1223.35c0,-12 50,-64 57,-58c3,3 -4,16 -16,28c-12,13 -21,26 -21,31c0,4 -4,8 -10,8c-5,0 -10,-4 -10,-9z" fill="red" id="svg_25" stroke="black" stroke-width="5"/>
   <path d="m3087.5,-1281.35c-161,-74 -176,-89 -139,-141c20,-29 49,-28 110,3c98,50 143,55 178,20c8,-8 17,-11 20,-6c4,5 -13,19 -37,30c-44,21 -75,19 -123,-7c-10,-6 -39,-20 -64,-32l-44,-20l-23,24l-22,24l26,26c14,14 30,26 36,26c10,0 87,34 160,71c48,24 74,24 87,-1c8,-15 6,-24 -10,-40c-13,-13 -16,-20 -7,-20c8,0 22,9 31,19c17,19 17,21 0,50c-11,19 -26,31 -39,31c-11,-1 -74,-26 -140,-57z" fill="red" id="svg_26" stroke="black" stroke-width="5"/>
   <path d="m1242.5,-1305.35c0,-5 5,-9 11,-9c5,0 7,-5 3,-12c-4,-7 -3,-8 4,-4c7,4 20,1 31,-6c23,-17 218,-15 235,2c8,8 -15,9 -90,4c-89,-6 -106,-4 -147,14c-26,12 -47,17 -47,11z" fill="red" id="svg_27" stroke="black" stroke-width="5"/>
   <path d="m1967.5,-1304.35c-16,-4 -51,-8 -77,-9c-67,-1 -60,-21 6,-21c30,0 58,5 61,10c3,6 17,10 30,10c13,0 27,5 30,10c7,11 -6,11 -50,0z" fill="red" id="svg_28" stroke="black" stroke-width="5"/>
   <path d="m3242.5,-1343.35c0,-5 10,-13 23,-17c28,-8 57,-38 57,-59c0,-22 -30,-66 -41,-59c-5,3 -9,1 -9,-4c0,-12 -51,-22 -78,-15c-34,8 -18,63 19,63c10,0 19,5 19,11c0,6 -9,8 -22,4c-13,-4 -31,-9 -40,-11c-24,-7 -23,-49 2,-74c26,-26 63,-25 111,2c83,46 73,133 -18,162c-14,4 -23,3 -23,-3z" fill="red" id="svg_29" stroke="black" stroke-width="5"/>
   <path d="m1282.5,-1703.35c0,-11 4,-22 9,-25c4,-3 6,6 3,19c-5,30 -12,33 -12,6z" id="svg_30"/>
   <rect fill="#d63e3e" height="0" id="svg_34" stroke="#259ba8" width="10" x="-1265.65" y="-5835.95"/>
  </g>
 </g>
</svg>